<svg xmlns="http://www.w3.org/2000/svg" width="287.227" height="70.039" viewBox="0 0 75.995 18.531">
    <path d="M30.474 43.482V28.103h4.382q.837 0 1.447.031.62.031 1.26.135.642.103 1.086.279.455.165.858.454.413.29.661.703.248.403.383.972.144.568.144 1.292 0 1.415-.692 2.428-.693 1.013-2.119 1.375.62 1.271.93 1.933l2.522 5.777h-1.54l-2.17-5.26q-.217-.517-.972-2.233-.206.031-1.53.031l-3.327-.062v7.524zm5.22-8.558q2.056 0 2.872-.713.817-.723.817-2.222 0-1.343-.744-2.056-.734-.724-2.512-.724h-4.33v5.684q2.428.031 3.896.031zm8.556 8.558V28.103h8.569l-.052 1.096h-7.193v5.787h6.842v1.127h-6.842v6.263h7.42l-.113 1.106zm15.41 0-5.54-15.379h1.469l3.493 9.912q.207.672.455 1.395.258.713.444 1.292.186.579.382 1.364.073-.372.207-.806l.465-1.385q.331-.961.641-1.922.755-2.398 1.798-5.065 1.044-2.666 1.726-4.785h1.489l-5.612 15.38zm15.266-.847q1.902 0 3.194-.869 1.302-.868 1.901-2.377.61-1.519.61-3.607 0-3.266-1.447-5.054-1.447-1.788-4.248-1.788-2.821 0-4.3 1.788-1.467 1.778-1.467 5.054 0 3.173 1.457 5.013 1.468 1.84 4.3 1.84zm0 1.085q-1.757 0-3.142-.579-1.375-.59-2.263-1.643-.879-1.065-1.344-2.512-.455-1.447-.455-3.193 0-3.66 1.881-5.809 1.892-2.15 5.333-2.15 3.38 0 5.271 2.17 1.892 2.16 1.892 5.799 0 1.705-.465 3.152-.466 1.437-1.354 2.501-.879 1.065-2.254 1.664-1.374.6-3.1.6zm10.274-.238V28.103h1.332v14.211h6.915l-.062 1.168zm12.443 0V29.24h-4.837v-1.137h11.017v1.137h-4.837v14.242z"
          aria-label="REVOLT" transform="translate(-29.15 -26.512)" />
    <path d="M45.786 1.693a6.895 7.536 0 0 0-6.679 5.664 6.895 7.536 0 0 0 0 .003 6.97 6.97 0 0 0-.246 1.834 6.97 6.97 0 0 0 .157 1.474 6.97 6.97 0 0 0 0 .005 6.895 7.536 0 0 0 .001.002 6.895 7.536 0 0 0 6.767 6.09 6.895 7.536 0 0 0 6.356-4.616 6.97 6.97 0 0 0 .657-2.955 6.97 6.97 0 0 0-.825-3.289 6.895 7.536 0 0 0-6.188-4.212zm2.192 1.293a6.356 6.722 0 0 1 .019.008l-2.167 5.26h3.29l-5.484 7.208 2.194-5.328h-3.29l5.438-7.148z" />
</svg>
